<?xml version="1.0" encoding="utf-8"?>
<!-- Generator: Adobe Illustrator 16.0.0, SVG Export Plug-In . SVG Version: 6.00 Build 0)  -->
<!DOCTYPE svg PUBLIC "-//W3C//DTD SVG 1.1//EN" "http://www.w3.org/Graphics/SVG/1.1/DTD/svg11.dtd">
<svg version="1.1" id="Layer_1" xmlns="http://www.w3.org/2000/svg" xmlns:xlink="http://www.w3.org/1999/xlink" x="0px" y="0px"
	 width="193px" height="182px" viewBox="0 0 193 182" enable-background="new 0 0 193 182" xml:space="preserve">
<path fill-rule="evenodd" clip-rule="evenodd" fill="#0D0F21" stroke="#58595B" stroke-miterlimit="10" d="M172.888,154.118
	c0,5.999-4.42,10.861-9.875,10.861H38.763c-5.453,0-9.875-4.863-9.875-10.861V32.833c0-5.998,4.422-10.861,9.875-10.861h124.25
	c5.455,0,9.875,4.863,9.875,10.861V154.118z"/>
<g>
	<defs>
		<path id="SVGID_1_" d="M172.888,153.125c0,5.998-4.42,10.861-9.875,10.861H38.763c-5.453,0-9.875-4.863-9.875-10.861V31.841
			c0-5.999,4.422-10.861,9.875-10.861h124.25c5.455,0,9.875,4.863,9.875,10.861V153.125z"/>
	</defs>
	<clipPath id="SVGID_2_">
		<use xlink:href="#SVGID_1_"  overflow="visible"/>
	</clipPath>
	<g clip-path="url(#SVGID_2_)">
		<linearGradient id="SVGID_3_" gradientUnits="userSpaceOnUse" x1="64.8428" y1="48.8066" x2="136.8435" y2="134.8075">
			<stop  offset="0.0323" style="stop-color:#6CBE45"/>
			<stop  offset="0.543" style="stop-color:#FFF200"/>
			<stop  offset="0.572" style="stop-color:#F8D309"/>
			<stop  offset="0.6318" style="stop-color:#E5A525"/>
			<stop  offset="0.6916" style="stop-color:#D8802B"/>
			<stop  offset="0.7499" style="stop-color:#CE632D"/>
			<stop  offset="0.8065" style="stop-color:#C74A2E"/>
			<stop  offset="0.8608" style="stop-color:#C2352E"/>
			<stop  offset="0.9121" style="stop-color:#BF242D"/>
			<stop  offset="0.957" style="stop-color:#BE1E2D"/>
		</linearGradient>
		<path fill="url(#SVGID_3_)" d="M103.777,119.721v7.729c0,0.961-0.79,1.749-1.764,1.749c-0.971,0-1.754-0.788-1.754-1.749v-7.729
			c0-0.969,0.783-1.751,1.754-1.751C102.987,117.97,103.777,118.752,103.777,119.721z M75.322,91.46h-7.784
			c-0.972,0-1.762,0.785-1.762,1.747c0,0.97,0.79,1.751,1.762,1.751h7.784c0.968,0,1.761-0.782,1.761-1.751
			C77.083,92.245,76.29,91.46,75.322,91.46z M102.014,68.442c0.974,0,1.764-0.779,1.764-1.746v-7.734
			c0-0.962-0.79-1.746-1.764-1.746c-0.971,0-1.754,0.784-1.754,1.746v7.734C100.26,67.664,101.043,68.442,102.014,68.442z
			 M117.812,80.126c-0.909-0.901-11.016,7.583-15.541,11.481c-6.35-5.891-22.046-20.307-22.738-19.616
			c-0.76,0.754,16.699,19.353,21.182,24.099c0.143,0.182,0.299,0.368,0.477,0.544c0.077,0.078,0.153,0.13,0.229,0.197
			c0.211,0.229,0.325,0.353,0.325,0.353c0.337,0.331,0.748,0.527,1.174,0.608c0.694,0.114,1.363-0.046,1.755-0.422
			c0.073-0.055,0.153-0.115,0.229-0.186C105.046,97.04,118.812,81.123,117.812,80.126z M136.496,91.46h-7.788
			c-0.968,0-1.758,0.785-1.758,1.747c0,0.97,0.79,1.751,1.758,1.751h7.788c0.968,0,1.759-0.782,1.759-1.751
			C138.255,92.245,137.464,91.46,136.496,91.46z M151.375,93.207c0,27.071-22.099,49.014-49.361,49.014
			c-27.259,0-49.358-21.942-49.358-49.014c0-27.069,22.1-49.013,49.358-49.013C129.276,44.194,151.375,66.137,151.375,93.207z
			 M142.753,93.207c0-22.344-18.237-40.456-40.739-40.456c-22.495,0-40.736,18.111-40.736,40.456
			c0,22.345,18.241,40.452,40.736,40.452C124.516,133.658,142.753,115.552,142.753,93.207z"/>
	</g>
</g>
</svg>
